<svg width="120" height="120" viewBox="0 0 120 120" fill="none" xmlns="http://www.w3.org/2000/svg">
<path d="M30 105C35.5228 105 40 100.523 40 95C40 89.4772 35.5228 85 30 85C24.4772 85 20 89.4772 20 95C20 100.523 24.4772 105 30 105Z" stroke="white" stroke-width="4" stroke-linecap="round" stroke-linejoin="round"/>
<path d="M90 35C95.5228 35 100 30.5228 100 25C100 19.4772 95.5228 15 90 15C84.4772 15 80 19.4772 80 25C80 30.5228 84.4772 35 90 35Z" stroke="white" stroke-width="4" stroke-linecap="round" stroke-linejoin="round"/>
<path d="M60 95H82.5C87.1413 95 91.5925 93.1563 94.8744 89.8744C98.1563 86.5925 100 82.1413 100 77.5C100 72.8587 98.1563 68.4075 94.8744 65.1256C91.5925 61.8437 87.1413 60 82.5 60H42.5C37.8587 60 33.4075 58.1563 30.1256 54.8744C26.8437 51.5925 25 47.1413 25 42.5C25 37.8587 26.8437 33.4075 30.1256 30.1256C33.4075 26.8437 37.8587 25 42.5 25H60" stroke="white" stroke-width="4" stroke-linecap="round" stroke-linejoin="round"/>
</svg>
